<svg id="af9e24ef-illustration" xmlns="http://www.w3.org/2000/svg" viewBox="0 0 350 350"><defs><style>.cls-af9e24ef-1{fill:none;}.face__bg{fill:#ececeb;}.cls-af9e24ef-3{clip-path:url(#af9e24ef-clip-path);}.cls-af9e24ef-4{fill:#5a753d;}.cls-af9e24ef-5{fill:#72c9a6;}.cls-af9e24ef-6{fill:#d9e354;}.cls-af9e24ef-7{fill:#738d56;}.cls-af9e24ef-8{fill:#54b08b;}.cls-af9e24ef-9{fill:#dfbda5;}.cls-af9e24ef-10{fill:#c3987b;}.cls-af9e24ef-11{fill:#cececd;}.cls-af9e24ef-12{fill:#2b2b2b;}.cls-af9e24ef-13{fill:#e8cab6;}.cls-af9e24ef-14{fill:#8b6651;}.cls-af9e24ef-15{fill:#474747;}.cls-af9e24ef-16{fill:#8f8f8f;}.cls-af9e24ef-17{fill:#4f5253;}.cls-af9e24ef-18{fill:#6f7173;}.cls-af9e24ef-19{fill:#c4c4c4;}</style><clipPath id="af9e24ef-clip-path"><circle class="cls-af9e24ef-1" cx="175" cy="175" r="175"/></clipPath></defs><circle class="face__bg" cx="175" cy="175" r="175"/><g class="cls-af9e24ef-3"><path class="cls-af9e24ef-4" d="M88.83,354.26c22.6-.05,45.1,2.84,67.51,6.1,21,2,42.32,2.58,63.41,3.23,11.37.36,22.7.24,34.05-.17,11.94-5.4,21-9.27,29.94-12.15l-15.51-81.54L214.41,279,129,294.45,92.06,308.77,64.64,338.88l11.14,15.57C80.13,354.35,84.48,354.27,88.83,354.26Z"/><polygon class="cls-af9e24ef-5" points="187.53 333.53 175.72 359.7 64.64 338.88 92.06 308.77 129.01 294.45 187.53 333.53"/><polygon class="cls-af9e24ef-5" points="187.53 333.53 213.08 346.25 268.23 269.73 214.41 279.04 187.53 333.53"/><path class="cls-af9e24ef-6" d="M205.66,363.15l8-17.81-26.17-11.81L175.72,359.7l5.39,2.43C189.3,362.57,197.49,362.88,205.66,363.15Z"/><path class="cls-af9e24ef-7" d="M219.75,363.59c11.37.36,22.7.24,34.05-.17,11.94-5.4,21-9.27,29.94-12.15l-15.51-81.54L213.7,345.34l-1.11,18Z"/><polygon class="cls-af9e24ef-8" points="113.58 348.05 92.06 308.77 64.64 338.88 113.58 348.05"/><path class="cls-af9e24ef-7" d="M88.83,354.26c7.76,0,15.52.32,23.26.89l-4.51-8.22-42.94-8.05-10.4,16.23C65.76,354.76,77.29,354.29,88.83,354.26Z"/><path class="cls-af9e24ef-4" d="M327.08,343.61l-58.85-73.88,15.51,81.54C296.09,347.28,308.16,345.2,327.08,343.61Z"/><polygon class="cls-af9e24ef-9" points="220.75 266.2 187.53 333.53 129.02 294.45 96.88 183.65 118.27 170.09 139.57 133.82 247.33 105.38 257.32 120.45 276.46 255.33 220.75 266.2"/><polygon class="cls-af9e24ef-10" points="100.51 196.16 129.02 294.45 187.53 333.53 220.75 266.2 171.29 274.23 147.62 146.64 139.57 133.82 117.75 168.64 100.51 196.16"/><polygon class="cls-af9e24ef-11" points="139.57 133.82 279.85 98.11 253.48 49.3 227.46 38.63 82.74 75.2 46.47 182.83 100.51 196.16 117.75 168.64 139.57 133.82"/><polygon class="cls-af9e24ef-12" points="266.73 101.45 295.58 151.09 269.71 207.76 257.32 120.45 247.9 106.25 266.73 101.45"/><polygon class="cls-af9e24ef-13" points="235.55 198.91 217.79 202.03 207.14 145.74 224.91 142.62 235.55 198.91"/><polygon class="cls-af9e24ef-14" points="235.55 198.91 229.39 207.16 217.79 202.03 235.55 198.91"/><polygon class="cls-af9e24ef-14" points="111.68 234.67 122.85 224.99 117.26 253.92 111.68 234.67"/><polygon class="cls-af9e24ef-15" points="165.16 146.31 172.34 151.17 187.19 138.3 199.3 140.52 199.76 138.01 187.13 132.15 165.16 146.31"/><polygon class="cls-af9e24ef-15" points="223.3 133.35 224.91 142.62 239.69 129.5 248.77 132.35 249.14 130.29 237.66 123.93 223.3 133.35"/><polygon class="cls-af9e24ef-10" points="172.34 151.17 214.58 185.04 207.14 145.74 199.3 140.52 187.19 138.3 172.34 151.17"/><polygon class="cls-af9e24ef-10" points="230.01 169.59 248.77 132.35 239.69 129.5 224.91 142.62 230.01 169.59"/><polygon class="cls-af9e24ef-14" points="199.07 225.54 249.11 216.76 244.86 224.49 205.44 230.73 199.07 225.54"/><polygon class="cls-af9e24ef-14" points="199.41 309.45 220.75 266.2 157.84 276.44 199.41 309.45"/><polygon class="cls-af9e24ef-16" points="257.32 120.45 266.73 101.45 295.58 151.09 257.32 120.45"/><polygon class="cls-af9e24ef-17" points="277.21 136.38 266.89 187.89 269.71 207.76 295.58 151.09 277.21 136.38"/><polygon class="cls-af9e24ef-9" points="111.68 234.67 132.05 217.27 117.96 168.31 100.51 196.16 111.68 234.67"/><polygon class="cls-af9e24ef-14" points="108.2 194.07 116.75 181.81 122.42 204.16 108.2 194.07"/><polygon class="cls-af9e24ef-10" points="175.47 124.69 252.33 112.92 247.9 106.25 175.47 124.69"/><polygon class="cls-af9e24ef-12" points="46.47 182.83 87.81 283.95 129.02 294.45 100.51 196.16 87.06 165.2 46.47 182.83"/><polygon class="cls-af9e24ef-18" points="46.47 182.83 111.68 234.67 87.81 283.95 46.47 182.83"/><polygon class="cls-af9e24ef-15" points="151.97 225.1 130.44 148.4 139.57 133.82 82.74 75.2 46.47 182.83 100.51 196.16 117.75 168.64 135.89 230.34 151.97 225.1"/><polygon class="cls-af9e24ef-15" points="87.81 283.95 51.47 257.43 61.43 219.42 87.81 283.95"/><polygon class="cls-af9e24ef-16" points="283.96 176.55 288.58 200.7 272.81 229.62 269.71 207.76 283.96 176.55"/><polygon class="cls-af9e24ef-19" points="253.48 49.3 82.74 75.2 227.46 38.63 253.48 49.3"/><polygon class="cls-af9e24ef-18" points="253.48 49.3 139.57 133.82 82.74 75.2 253.48 49.3"/><polygon class="cls-af9e24ef-16" points="253.48 49.3 139.57 133.82 279.85 98.11 253.48 49.3"/></g><circle cx="189.97" cy="165.78" r="6.43"/><circle cx="242.32" cy="155.67" r="6.43"/></svg>