<?xml version="1.0" ?><svg fill="hsl(202.67deg 100% 84.74%)" xmlns="http://www.w3.org/2000/svg" width="168" height="168" viewBox="0 0 168 168" fill="none"><path fill-rule="evenodd" clip-rule="evenodd" d="M62.6427 33.2308C57.3786 38.5853 54.2194 46.3751 54.2194 56.0572C54.2194 68.8212 59.6294 76.5035 66.0451 81.1099C72.6403 85.8453 80.465 87.4267 85.0006 87.4267C96.2145 87.4267 103.791 82.7315 108.646 76.5583C113.596 70.264 115.781 62.33 115.781 56.0572C115.781 46.3751 112.622 38.5853 107.358 33.2308C102.099 27.8816 94.4703 24.6876 85.0006 24.6876C75.5306 24.6876 67.9016 27.8816 62.6427 33.2308ZM103.601 89.8718C107.851 87.5218 111.345 84.4025 114.125 80.8677C120.14 73.2199 122.752 63.7264 122.752 56.0572C122.752 44.8263 119.058 35.1885 112.329 28.3437C105.595 21.4937 96.0905 17.7166 85.0006 17.7166C73.9105 17.7166 64.4061 21.4936 57.6717 28.3437C50.9424 35.1885 47.2484 44.8262 47.2484 56.0572C47.2484 71.1772 53.8316 80.9225 61.9793 86.7725C63.5628 87.9095 65.1992 88.8957 66.8501 89.7461C57.7448 92.248 50.3515 96.6098 44.3321 102.02C34.8141 110.574 28.9148 121.58 24.9404 131.435C24.2204 133.22 25.084 135.251 26.8693 135.971C28.6546 136.691 30.6855 135.827 31.4055 134.042C35.1884 124.662 40.5912 114.754 48.9918 107.204C57.3081 99.7303 68.7446 94.3977 85.0006 94.3977C100.197 94.3977 111.168 99.058 119.312 105.746C127.523 112.489 133.053 121.457 137.016 130.321L137.016 130.321C139.66 136.235 135.02 143.195 127.738 143.195H47.3073C45.3823 143.195 43.8218 144.755 43.8218 146.68C43.8218 148.605 45.3823 150.166 47.3073 150.166H127.738C139.255 150.166 148.408 138.725 143.38 127.476C139.173 118.065 133.089 108.039 123.736 100.359C118.184 95.7994 111.548 92.1228 103.601 89.8718Z" fill="black"/></svg>