<svg width="256" height="256" viewBox="0 0 256 256" fill="none" xmlns="http://www.w3.org/2000/svg">
<mask id="mask0_1166_3589" style="mask-type:alpha" maskUnits="userSpaceOnUse" x="132" y="32" width="92" height="94">
<path d="M132.49 32H223.991V125.513H132.49V32Z" fill="white"/>
</mask>
<g mask="url(#mask0_1166_3589)">
<path fill-rule="evenodd" clip-rule="evenodd" d="M160.163 117.899C160.08 111.308 157.802 97.836 141.751 90.1923C158.05 95.2783 165.89 108.806 166.691 118.899C183.804 122.249 198.989 130.159 223.647 121.808L223.732 121.755C223.732 121.755 191.285 122.045 177.716 112.402C184.723 112.662 192.791 111.104 195.434 107.206C198.252 103.055 198.543 98.7676 205.485 98.5475C209.384 98.4241 222.609 99.3936 223.996 80.3185C219.764 87.3338 215.181 90.2338 208.26 88.5026C203.842 87.3962 195.777 84.0756 190.013 90.8402C185.253 96.4251 180.142 99.3251 171.986 98.4607C175.249 94.1315 223.865 32.1296 223.865 32.1296C223.865 32.1296 161.585 81.2294 158.147 84.0866C157.486 75.1237 160.218 71.8336 163.876 67.8932C166.869 64.6704 172.073 60.3045 167.931 51.0934C164.582 43.6465 165.022 39.1425 174.145 32C166.872 32.5196 155.774 37.3244 157.087 50.4442C157.881 58.3667 152.167 59.0513 150.078 60.1859C144.658 63.1299 143.951 71.7028 143.776 78.3709C143.161 76.2057 135.272 42.8873 132.496 32.1064C132.493 32.1125 132.494 121.754 132.494 121.754H132.704C143.273 117.664 152.066 117.039 160.163 117.898" fill="#BE2F37"/>
</g>
<mask id="mask1_1166_3589" style="mask-type:alpha" maskUnits="userSpaceOnUse" x="32" y="32" width="92" height="94">
<path d="M32 125.516V32.1074H123.032V125.514L32 125.516Z" fill="white"/>
</mask>
<g mask="url(#mask1_1166_3589)">
<path fill-rule="evenodd" clip-rule="evenodd" d="M99.0529 80.5971C98.3485 76.873 98.7007 69.513 102.403 62.2397C88.7389 72.3714 88.5634 80.5971 88.5634 80.5971C88.5634 80.5971 91.2082 78.6055 99.0529 80.5971V80.5971ZM92.7067 58.4289C92.7067 58.4289 76.1335 60.7677 71.3741 61.2005C68.0895 63.1053 64.3221 68.431 64.3221 68.431C64.3221 68.431 60.4427 68.9934 52.6862 70.3798C47.2921 73.8361 44.0462 81.8955 50.7459 88.4768C48.6301 88.044 48.6301 88.044 45.5447 87.5244C38.9333 91.6812 42.0187 99.3885 55.7704 96.7037C51.8922 96.5741 49.9518 94.7121 49.9966 92.2864C49.9083 89.6456 55.1543 86.3556 61.5454 88.044C55.4617 76.7434 62.205 72.2834 62.205 72.2834C62.205 72.2834 58.6367 81.6143 66.4379 89.2556C67.1424 88.1308 69.4785 84.9703 76.0463 84.8408C82.5892 84.7112 86.7002 87.8679 86.7998 91.5076C86.8881 94.7121 82.7448 98.0889 77.3681 98.0889L77.2797 90.4329C77.2797 90.4329 75.5286 91.0528 75.032 91.7313C75.0394 92.0835 74.9884 98.1757 74.9884 98.1757C72.8713 98.1757 68.5538 97.3101 66.2612 93.7156C64.4976 93.5432 54.6689 92.114 54.6689 92.114L55.1979 94.668C55.1979 94.668 58.6367 95.2317 59.2964 98.6085C60.0967 102.694 62.4701 106.445 64.586 107.961C68.6845 107.485 75.4726 102.419 87.9473 102.592C76.4869 104.151 64.8511 116.186 48.1011 111.597C74.7233 120.518 77.4565 100.687 110.777 106.922C105.577 103.805 97.8195 102.852 97.8195 102.852C97.8195 102.852 101.962 98.4349 102.138 91.6812C102.667 91.6482 103.373 91.5944 104.696 91.4648C105.137 89.2996 105.444 87.1026 105.444 87.1026C105.444 87.1026 98.1718 87.0916 92.0682 87.0916C77.2138 72.3274 92.7067 58.4289 92.7067 58.4289V58.4289ZM55.5065 58.1697C59.6934 58.3848 64.7826 55.8296 65.1149 55.6144C65.1149 55.6144 63.3513 59.9877 67.3179 59.7285C71.6242 59.4461 76.5815 57.2772 77.2797 56.9581V51.328C76.8964 51.6055 72.6996 54.519 67.9365 55.5716C66.1965 55.9555 66.7902 54.4456 66.9657 53.58C67.1424 52.7144 67.2606 52.0065 64.1454 53.2768C51.4068 58.4729 50.7459 54.9224 50.7459 54.4884C50.2182 55.096 50.441 57.9068 55.5065 58.1697V58.1697ZM123.027 32.1074V121.755C86.3106 107.553 71.0156 135.091 31.9199 121.755V32.1074H50.5206V41.7843H61.1882L61.1869 32.1074H71.6778L71.679 41.7856L82.2557 41.7843V32.1074H92.8349V41.7843L104.338 41.7856V32.1074H123.027" fill="#BE2F37"/>
</g>
<path fill-rule="evenodd" clip-rule="evenodd" d="M158.074 154.043C158.074 154.043 157.638 153.83 158.467 153.152C158.569 153.067 158.728 153.253 159.21 153.258C159.858 153.267 160.198 153.047 160.736 152.411C161.55 151.445 159.853 151.072 159.305 151.538C158.698 152.044 158.265 152.574 157.749 153.038C157.749 153.038 156.878 153.799 158.074 154.043V154.043ZM189.502 199.33C188.049 200.497 183.553 202.726 182.428 203.246C181.305 203.766 180.945 204.081 180.116 205.693C179.101 207.664 178.132 211.238 178.396 211.493C181.172 211.063 183.156 208.768 183.156 208.768C183.156 208.768 183.2 208.206 182.584 207.25C182.073 206.462 183.069 205.608 183.685 206.104C184.154 206.483 184.809 206.56 185.206 206.232C185.602 205.908 194.263 200.498 194.66 199.867C193.553 198.786 192.515 197.637 191.552 196.428C191.552 196.428 190.957 198.16 189.502 199.33V199.33ZM155.653 175.602C151.95 174.127 151.122 173.145 150.429 172.852C149.812 172.595 147.263 173.659 146.837 174.734C145.692 177.636 143.136 182.376 142.761 183.048C142.558 183.409 142.342 183.828 142.385 184.305C142.43 184.779 142.573 186.643 142.53 187.074C142.485 187.509 142.551 188.073 142.726 188.505C142.903 188.937 143.137 190.797 144.104 192.661C146.265 190.539 146.581 187.409 146.44 188.028C146.436 188.044 147.125 186.882 145.405 186.36C144.916 186.213 144.988 184.962 145.514 184.801C146.154 184.608 146.485 184.432 146.794 183.31C147.102 182.181 148.265 178.138 148.644 177.356C148.703 177.236 148.81 177.033 149.024 176.935C149.36 176.788 149.715 176.685 150.078 176.627C150.24 176.603 150.551 176.775 150.645 176.869C151.232 177.452 154.286 179.886 154.286 179.886C154.286 179.886 155.653 179.758 156.49 179.412C155.96 178.588 155.741 176.595 155.653 175.602V175.602ZM151.916 158.498C151.916 158.498 150.627 160.058 152.082 160.448C152.116 160.901 152.297 161.797 152.48 162.266C152.722 162.894 153.14 162.688 153.603 162.169C154.066 161.649 154.81 160.662 155.355 160.09C155.851 159.572 157.577 159.758 156.876 160.803C156.413 161.496 156.05 161.683 155.455 161.812C154.984 161.913 154.843 161.518 154.331 162.203C153.792 162.919 153.216 163.42 154.166 163.42C154.661 163.42 155.603 163.874 156.232 163.775C156.823 163.685 156.889 163.306 156.953 162.785C157.018 162.244 156.911 161.93 157.527 161.595C158.319 161.16 159.487 160.123 159.842 159.755C160.245 159.332 160.766 159.43 161.295 159.43C161.824 159.43 164.379 159.733 165.901 157.492C166.973 155.912 167.091 153.759 166.694 151.811C167.421 152.525 168.399 154.771 167.884 156.875C166.968 160.624 165.089 160.833 163.189 161.227C162.396 162.329 160.369 165.165 159.29 170.32C158.827 170.622 154.992 174.259 158.198 180.226C157.372 180.493 154.935 181.517 153.493 181.834C152.524 182.054 151.714 182.103 151.323 182.562C150.882 183.08 149.868 184.771 150.397 185.612C150.771 186.212 153.174 191.49 153.371 193.116C153.571 194.737 154.168 195.124 154.759 195.65C155.421 196.233 155.851 196.2 156.777 196.884C157.713 197.571 158.491 198.814 159.356 199.48C160.28 200.194 161.317 200.519 162.044 200.452C161.867 197.814 161.293 195.215 160.457 194.351C159.587 193.449 158.496 194.737 158.232 194.805C157.968 194.868 157.598 194.618 157.438 193.894C157.272 193.146 157.968 192.529 157.306 191.556C156.402 190.215 155.552 188.838 154.759 187.43C153.9 185.779 155.359 185.336 155.719 185.42C156.579 185.612 161.735 186.297 162.528 186.361C163.321 186.424 163.76 186.557 164.116 186.163C165.206 184.965 165.834 184.087 166.462 182.851C167.62 183.699 166.826 185.322 166.496 187.247C166.826 187.53 174.297 191.232 184.568 188.547C188.855 187.428 188.367 188.31 188.776 189.088C191.266 193.832 193.03 195.665 195.983 197.986C196.864 198.679 197.48 199.804 197.877 200.452C198.276 201.104 198.375 202.259 198.054 203.01C197.657 203.939 195.363 207.981 194.969 208.549C194.22 209.632 193.241 210.542 192.411 210.974C189.811 212.338 189.163 213.563 188.876 214.517H195.553C195.553 214.517 195.708 214.174 195.63 213.355C195.519 212.21 196.577 212.017 196.908 211.949C197.238 211.884 197.834 212.142 198.362 210.91C199.357 208.59 203.233 202.121 203.564 201.535C203.894 200.951 205.105 199.389 203.916 198.7C201.667 197.404 200.348 195.267 199.905 192.874C199.728 191.923 199.834 190.356 202.021 187.681C206.693 181.967 203.211 170.19 192.811 170.406C186.911 170.529 183.628 170.035 179.785 169.282C178.379 169.002 178.139 168.261 178.44 167.416C178.749 166.552 179.047 164.831 179.056 164.127C178.043 163.219 176.501 162.656 175.751 162.397C174.944 162.117 174.539 161.485 175.355 161.423C176.17 161.357 179.256 161.682 179.256 161.682C179.256 161.682 179.365 160.058 178.925 157.677C177.405 157.043 175.803 156.62 174.165 156.42C173.701 156.364 173.294 155.851 174.473 155.686C176.016 155.47 177.426 155.707 178.53 155.641C178.595 155.513 178 152.482 176.908 151.258C176.149 151.032 175.746 150.928 173.107 150.62C172.181 150.511 172.136 150.251 172.754 150.054C173.472 149.831 174.661 149.603 176.149 149.697C175.577 148.92 171.741 142.047 163.785 144.116C164.676 145.185 165.107 145.683 165.371 146.42C165.608 147.08 164.899 147.289 164.248 146.617C161.735 144.017 160.412 144.081 158.793 143.788C159.851 144.797 160.314 145.805 160.677 146.809C158.86 148.076 156.281 151.095 155.917 151.68C155.225 152.792 156.182 153.391 156.182 153.391L151.916 158.498V158.498ZM203.32 141.095C195.189 143.886 196.388 152.497 198.583 155.816C201.448 160.145 203.873 160.232 205.702 165.318C207.127 169.287 204.577 171.358 202.064 172.267C206.362 174.868 210.792 172.182 212.378 169.584C215.301 165.758 211.99 160.789 215.112 158.196C215.947 157.503 217.359 157.027 219.256 156.941C217.358 154.3 212.909 154.603 211.123 157.071C209.867 154.213 206.34 151.714 207.619 147.286C208.457 144.385 213.128 143.303 214.89 145.684C215.855 146.986 215.993 149.537 213.172 150.836C214.935 150.707 218.284 147.719 215.993 143.65C214.383 140.79 211.674 140.572 209.471 140.572C205.458 140.572 198.805 145.079 203.058 154.797C200.611 152.655 196.644 145.185 203.32 141.095V141.095ZM223.609 130.975V220.73C173.099 232.811 171.641 206.441 132.503 220.73C132.507 221.895 132.486 130.966 132.503 130.975C168.469 116.167 182.487 144.223 223.609 130.975V130.975Z" fill="#BE2F37"/>
<mask id="mask2_1166_3589" style="mask-type:alpha" maskUnits="userSpaceOnUse" x="32" y="126" width="92" height="98">
<path d="M32 126.529V223.998H123.038V126.529H32Z" fill="white"/>
</mask>
<g mask="url(#mask2_1166_3589)">
<path fill-rule="evenodd" clip-rule="evenodd" d="M65.0626 182.179C65.0626 182.179 63.4646 183.203 65.4671 187.519C67.4672 191.83 69.9527 195.845 65.6277 200.583C68.0796 200.612 73.4314 197.436 67.705 187.968C66.3882 185.788 64.9668 184.278 65.0626 182.179V182.179ZM59.6449 184.212C60.9691 184.123 61.1371 182.531 60.8969 181.694C60.6144 180.703 58.9342 180.581 58.5297 181.84C58.1289 183.087 58.4787 184.298 58.4787 184.298C58.811 185.498 60.1875 185.842 60.3057 185.721C59.5416 185.047 59.7482 184.661 59.6449 184.212V184.212ZM60.9181 189.942C60.5982 193.753 58.3729 194.314 58.3729 194.314C54.4897 192.562 52.4062 197.364 55.6658 198.777C59.7955 200.571 62.3233 195.327 62.5684 194.357C63.2642 191.609 63.3302 189.665 63.0165 185.202C62.7527 181.399 63.7085 180.823 64.3458 180.72C64.9805 180.613 66.3097 180.561 67.6353 184.526C68.9633 188.488 71.8259 189.061 71.8259 189.061C71.8259 189.061 67.6801 182.434 73.4463 176.316C76.1272 173.473 81.5948 171.856 80.5829 167.873C80.5829 167.873 79.7366 169.301 78.0912 169.719C76.4459 170.135 73.2609 170.606 73.2609 170.606C73.2609 170.606 80.9053 167.059 82.2843 162.994C82.2843 162.994 84.6727 166.904 81.4878 172.638C81.4878 172.638 84.5209 171.573 87.7842 173.019C96.102 176.642 95.2196 188.277 84.6939 191.055C69.715 195.003 75.1539 206.385 83.7318 207.083C82.8108 206.509 82.6029 203.078 84.1089 201.039C84.8619 200.382 86.2061 199.054 87.0586 201.846C88.5646 206.778 92.9606 207.179 94.9993 206.562C94.4641 206.117 93.4622 204.619 93.5866 203.754C93.838 202.028 96.0335 203.821 96.8313 204.043C102.731 205.688 105.867 204.251 106.203 203.382C104.886 203.116 105.117 203.264 104.279 203.057C103.5 202.862 101.985 201.805 104.824 201.166C110.034 199.992 112.9 194.711 109.469 190.644C106.193 186.756 102.064 187.352 100.723 187.886C106.373 189.082 106.656 193.547 103.777 195.821C101.267 197.672 95.0316 198.41 92.8971 194.3C91.548 195.258 91.0762 196.789 91.3077 198.699C90.7414 198.491 88.3767 195.186 91.8915 192.451C108.191 182.129 105.561 164.782 91.7658 157.644L91.5952 157.57C79.0807 150.509 68.1319 156.954 68.1319 156.954C75.8696 149.341 89.2404 153.869 91.1646 154.815C91.1646 154.815 89.6263 153.5 88.8073 152.294C87.7469 150.732 87.7867 149.239 87.7867 149.239C82.4797 152.149 81.1094 147.678 81.1094 147.678C81.1094 147.678 76.5131 151.748 73.5297 148.439C70.921 145.541 75.144 141.613 75.144 141.613C48.2181 150.293 53.321 165.23 53.321 165.23C53.321 165.23 49.4216 168.747 48.5492 177.227C47.5572 186.858 52.4411 193.706 58.5434 191.824C59.9411 191.395 60.6343 190.74 60.9044 190.017L60.9169 189.942H60.9181ZM123.028 130.975C123.043 130.966 123.022 221.895 123.028 220.73C83.8849 206.443 82.4312 232.809 31.9199 220.73V130.975C73.0418 144.223 87.0599 116.167 123.028 130.975Z" fill="#BE2F37"/>
</g>
</svg>
